<?xml version="1.0" standalone="no"?>
<!DOCTYPE svg PUBLIC "-//W3C//DTD SVG 20010904//EN"
 "http://www.w3.org/TR/2001/REC-SVG-20010904/DTD/svg10.dtd">
<svg version="1.0" xmlns="http://www.w3.org/2000/svg"
 width="300.000000pt" height="100.000000pt" viewBox="0 0 300.000000 100.000000"
 preserveAspectRatio="xMidYMid meet">

<g transform="translate(0.000000,100.000000) scale(0.100000,-0.100000)"
fill="#000000" stroke="none">
<path d="M2736 953 c-8 -16 -35 -49 -60 -74 -36 -37 -46 -54 -46 -80 0 -19 -4
-40 -8 -47 -5 -7 -6 14 -4 45 3 49 1 61 -17 77 -17 16 -25 17 -45 8 -26 -12
-46 -78 -46 -152 0 -33 -7 -47 -41 -82 l-40 -41 7 115 c6 111 6 116 -14 127
-11 6 -25 11 -31 11 -20 0 -41 -47 -49 -106 l-7 -59 -68 -5 c-77 -6 -102 -24
-88 -63 8 -20 16 -22 78 -22 l70 0 10 -107 c8 -78 16 -116 32 -141 25 -41 27
-79 6 -137 -8 -23 -15 -57 -15 -74 0 -102 139 -169 281 -136 70 16 99 35 99
64 0 32 -15 36 -135 36 -104 0 -135 5 -135 21 0 5 50 9 111 9 67 0 119 5 132
12 12 7 34 11 49 9 39 -4 65 14 73 50 6 26 3 36 -19 56 -23 21 -26 31 -26 96
0 64 4 82 36 143 34 66 35 73 30 143 -6 71 -5 75 24 108 17 18 30 42 30 51 0
20 -41 62 -77 81 -14 7 -23 21 -23 36 0 38 -11 55 -36 55 -16 0 -28 -9 -38
-27z m87 -103 c26 -16 47 -32 47 -36 0 -3 -14 -22 -31 -42 -30 -34 -31 -36
-24 -111 6 -74 6 -77 -28 -133 -28 -46 -35 -72 -41 -133 -8 -84 -1 -139 20
-156 17 -14 18 -29 1 -29 -6 0 -24 20 -39 45 -15 25 -31 45 -35 45 -23 -1 -67
-64 -59 -86 4 -11 -8 -14 -62 -14 -37 0 -83 3 -102 6 l-35 6 -3 143 c-3 137
-2 145 22 193 14 28 30 53 35 56 5 3 12 -35 16 -86 4 -51 13 -110 19 -131 13
-45 43 -71 66 -57 12 8 15 39 15 179 l0 170 27 28 c17 18 31 47 37 76 6 35 19
56 52 89 36 35 45 40 49 26 3 -10 26 -31 53 -48z"/>
<path d="M1951 891 c-6 -11 -11 -28 -11 -39 0 -17 -10 -21 -67 -27 -76 -8 -93
-17 -93 -50 0 -42 21 -49 141 -41 l111 6 -24 -29 c-12 -16 -58 -70 -100 -120
-58 -68 -78 -99 -78 -121 0 -64 70 -44 140 40 23 27 46 50 50 50 5 0 30 -19
57 -41 58 -51 101 -71 125 -58 33 17 19 49 -48 120 -49 50 -64 72 -57 81 6 7
31 39 56 71 51 63 55 77 30 103 -14 13 -29 16 -84 11 l-67 -6 -9 32 c-11 40
-55 51 -72 18z"/>
<path d="M701 876 c-7 -8 -17 -42 -23 -75 -11 -58 -13 -61 -40 -61 -27 0 -28
1 -28 55 0 44 -4 56 -20 65 -30 16 -56 4 -71 -33 -20 -47 -19 -340 1 -386 15
-32 15 -34 -15 -66 -55 -57 -68 -140 -36 -212 44 -96 159 -109 263 -30 88 67
113 167 62 243 l-27 39 7 195 c8 242 8 251 -6 267 -14 17 -53 17 -67 -1z m-41
-243 c0 -16 3 -64 6 -108 l7 -81 -30 -2 c-29 -2 -31 0 -37 44 -3 26 -6 73 -6
105 0 60 -2 58 53 68 4 0 7 -11 7 -26z m34 -304 c37 -29 35 -72 -5 -110 -41
-38 -73 -46 -104 -25 -66 43 -22 154 61 156 12 0 33 -9 48 -21z"/>
<path d="M1483 858 c-14 -27 -18 -67 -21 -225 l-4 -191 -33 -6 c-92 -18 -161
-114 -153 -213 11 -129 131 -180 254 -108 116 68 147 197 68 284 -32 36 -34
43 -34 105 l0 66 48 1 c81 2 97 10 97 49 l0 35 -73 3 c-63 2 -73 5 -70 20 2
13 18 19 67 24 74 8 84 15 79 54 -3 28 -5 29 -64 32 l-62 3 -5 35 c-12 72 -63
89 -94 32z m31 -529 c14 -11 26 -29 26 -39 0 -56 -68 -118 -115 -106 -64 16
-71 110 -12 146 41 25 68 25 101 -1z"/>
<path d="M166 854 c-76 -8 -145 -19 -153 -26 -21 -17 -12 -61 14 -73 22 -9 23
-14 23 -141 0 -106 3 -134 15 -144 13 -10 44 -11 156 -2 78 6 146 16 154 22
20 16 19 66 0 74 -9 3 -63 3 -120 -1 l-105 -6 0 95 0 96 33 5 c17 4 65 9 105
13 75 7 102 21 102 53 0 25 -32 51 -61 50 -13 -1 -87 -8 -163 -15z"/>
<path d="M992 848 c-8 -8 -12 -65 -12 -190 0 -167 1 -178 20 -188 25 -13 315
14 336 31 18 15 18 53 0 68 -18 15 -29 16 -153 6 l-103 -8 0 127 c0 70 -5 136
-10 147 -12 22 -59 26 -78 7z"/>
</g>
</svg>
